<?xml version="1.0" standalone="no"?><!DOCTYPE svg PUBLIC "-//W3C//DTD SVG 20010904//EN"
    "http://www.w3.org/TR/2001/REC-SVG-20010904/DTD/svg10.dtd">
<svg version="1.0" xmlns="http://www.w3.org/2000/svg" width="190.000000pt" height="190.000000pt"
    viewBox="0 0 190.000000 190.000000" preserveAspectRatio="xMidYMid meet">

    <g transform="translate(0.000000,190.000000) scale(0.100000,-0.100000)" fill="#000000"
        stroke="none">
        <path d="M660 1541 c0 -5 7 -14 15 -21 8 -7 15 -23 15 -36 0 -22 -3 -23 -42
-19 -40 5 -58 -3 -298 -139 l-255 -144 1 -182 c1 -149 5 -185 17 -197 10 -10
52 -20 119 -27 97 -10 103 -12 116 -38 18 -37 81 -63 188 -77 127 -17 310 -82
349 -125 23 -25 44 -36 85 -45 126 -26 341 -43 585 -48 223 -4 263 -3 280 11
36 27 8 48 -110 81 l-107 29 26 23 c14 12 59 32 99 43 39 12 78 23 85 25 7 3
12 22 12 49 l0 45 -62 3 -62 3 -12 74 c-14 83 -19 90 -66 100 l-33 7 3 86 3
85 -63 17 c-35 10 -73 24 -85 32 -12 8 -30 13 -40 12 -55 -4 -92 3 -97 20 -3
9 -10 35 -15 58 -13 47 -30 58 -126 75 -60 12 -65 14 -65 38 0 52 -8 55 -207
77 -103 12 -190 19 -193 17 -2 -2 -6 -47 -8 -100 l-5 -97 31 26 c21 17 48 28
85 32 35 5 61 14 73 27 14 16 31 19 106 19 57 0 87 -4 83 -10 -3 -5 -39 -10
-80 -10 -41 0 -76 -4 -80 -9 -5 -10 50 -16 217 -26 131 -7 143 -14 160 -84 12
-53 15 -56 48 -61 31 -5 28 -7 -27 -13 -41 -5 -63 -13 -67 -23 -3 -9 -6 -60
-6 -115 l0 -99 -80 0 c-44 0 -80 -4 -80 -9 0 -5 -6 -16 -14 -24 -13 -12 -13
-22 -2 -65 12 -43 12 -52 0 -56 -9 -3 -23 13 -39 47 -46 90 -61 100 -116 71
-33 -17 -59 -66 -59 -113 0 -16 -5 -33 -11 -36 -7 -5 -8 5 -4 29 5 24 3 36 -4
36 -6 0 -11 -16 -11 -35 0 -39 -24 -105 -38 -105 -5 0 -30 7 -56 16 -49 17
-56 37 -16 42 21 3 22 7 17 53 l-6 49 34 0 c19 0 35 5 35 10 0 6 9 10 19 10
26 0 51 10 51 21 0 5 -24 9 -53 9 -81 0 -91 17 -88 149 1 58 3 106 4 106 1 1
17 -2 35 -5 l34 -5 -22 -27 c-24 -31 -21 -52 11 -86 27 -30 39 -20 39 35 0 34
6 53 21 69 l22 23 -27 7 c-15 3 -40 4 -55 1 -47 -10 -63 10 -59 73 3 47 7 56
28 67 19 10 21 13 7 13 -10 0 -34 -12 -53 -26 -19 -15 -36 -25 -38 -23 -10 10
10 213 22 217 17 5 15 53 -4 80 -15 22 -34 29 -34 13z m-61 -338 c-1 -131 -4
-244 -6 -250 -4 -10 -62 -13 -244 -13 l-239 0 0 118 0 117 243 132 c133 73
243 133 245 133 2 0 2 -107 1 -237z m944 -94 l47 -11 0 -158 0 -158 -27 -6
c-16 -3 -86 -6 -158 -8 l-130 -3 -3 164 c-1 91 2 169 7 174 16 16 129 21 147
6 14 -11 17 -10 26 4 5 10 17 16 26 13 9 -3 38 -10 65 -17z m-703 -3 c0 -2 -7
-6 -15 -10 -8 -3 -15 -1 -15 4 0 6 7 10 15 10 8 0 15 -2 15 -4z m-144 -171
c18 -14 18 -14 -5 -15 -23 0 -23 -1 -8 -18 11 -12 17 -36 17 -69 0 -49 -1 -51
-30 -55 l-30 -5 0 82 c0 100 10 115 56 80z m472 -62 c2 -8 -6 -13 -22 -13 -25
0 -33 10 -19 24 10 10 36 3 41 -11z m52 2 c0 -8 -9 -15 -20 -15 -11 0 -20 7
-20 15 0 8 9 15 20 15 11 0 20 -7 20 -15z m414 -6 c-3 -5 -10 -7 -15 -3 -5 3
-7 10 -3 15 3 5 10 7 15 3 5 -3 7 -10 3 -15z m46 1 c0 -5 -4 -10 -9 -10 -6 0
-13 5 -16 10 -3 6 1 10 9 10 9 0 16 -4 16 -10z m-1313 -102 c-2 -13 -4 -3 -4
22 0 25 2 35 4 23 2 -13 2 -33 0 -45z m79 2 c-1 -27 -4 -50 -8 -50 -5 0 -8 23
-8 50 0 28 4 50 8 50 5 0 8 -22 8 -50z m549 26 c30 -30 40 -80 27 -137 l-10
-44 -1 61 c-1 84 -27 118 -83 111 -38 -5 -39 -5 -22 14 23 26 60 24 89 -5z
m-36 -50 c15 -18 23 -95 13 -130 -12 -42 -39 -57 -58 -32 -16 23 -19 128 -4
157 12 22 33 25 49 5z m586 4 c4 -6 -29 -10 -92 -9 -67 1 -88 4 -68 9 45 11
153 11 160 0z m25 -31 c-113 -4 -232 -9 -265 -11 l-59 -3 -9 -37 c-13 -55 -37
-50 -37 7 l0 44 143 4 c78 1 207 3 287 3 130 1 123 0 -60 -7z m130 -81 c-15
-7 -101 -12 -220 -14 l-195 -1 197 6 c108 3 200 10 204 14 4 4 14 7 23 6 10 0
6 -5 -9 -11z" />
        <path d="M1290 929 l0 -151 138 7 c75 4 140 9 145 12 4 2 7 64 7 137 l0 133
-107 6 c-58 4 -123 7 -145 7 l-38 0 0 -151z" />
        <path d="M927 693 c-11 -10 -8 -51 3 -58 20 -12 32 7 13 22 -13 10 -15 16 -5
19 6 3 12 10 12 15 0 11 -14 12 -23 2z" />
        <path d="M810 1290 c0 -5 5 -10 11 -10 5 0 7 5 4 10 -3 6 -8 10 -11 10 -2 0
-4 -4 -4 -10z" />
        <path d="M910 1239 c0 -88 1 -89 153 -89 l133 0 -4 41 -4 40 38 -3 c37 -3 39
-5 42 -40 2 -21 8 -38 14 -38 13 0 3 99 -11 113 -13 13 -143 26 -263 26 l-98
1 0 -51z m108 -56 c2 -9 -10 -13 -42 -13 -35 0 -46 4 -46 16 0 12 9 14 42 12
23 -2 43 -9 46 -15z" />
        <path d="M813 1263 c-20 -4 -23 -11 -23 -53 0 -55 1 -55 53 -65 l37 -7 0 66
c0 72 0 72 -67 59z" />
        <path d="M887 1070 c-4 -30 -8 -73 -10 -95 l-2 -40 -55 -6 -55 -6 62 -1 c74
-2 76 0 71 123 l-3 80 -8 -55z" />
        <path d="M940 1110 c0 -13 200 -13 220 0 10 7 -23 10 -102 10 -72 0 -118 -4
-118 -10z" />
        <path d="M972 971 c-4 -11 -22 -30 -41 -43 -19 -13 -37 -30 -39 -38 -3 -10 3
-7 19 7 33 30 77 45 110 38 l28 -6 -28 30 c-34 36 -39 38 -49 12z" />
    </g>
</svg>
