<svg xmlns="http://www.w3.org/2000/svg" width="24.000000pt" height="24.000000pt"
    viewBox="0 0 240.000000 100.000000" preserveAspectRatio="xMidYMid meet">

    <g transform="translate(0.000000,190.000000) scale(0.100000,-0.100000)" fill="#000000"
        stroke="none">
        <path d="M255 1887 c-3 -7 -4 -152 -3 -322 l3 -310 603 -3 602 -2 0 325 0 325
-600 0 c-474 0 -602 -3 -605 -13z" />
        <path d="M1510 1550 l0 -350 -291 0 c-229 0 -290 -3 -285 -12 3 -7 11 -32 18
-55 l12 -43 307 0 306 0 7 40 c7 44 60 112 105 134 110 56 251 -8 283 -129
l12 -45 79 0 78 0 -3 173 -3 172 -60 188 -59 189 -88 44 -88 44 -165 0 -165 0
0 -350z m488 70 l41 -120 -220 0 -219 0 0 113 c0 63 3 117 7 120 3 4 84 7 179
7 l172 0 40 -120z" />
        <path d="M690 1211 c-98 -52 -98 -195 0 -250 66 -37 131 -23 184 39 33 40 36
116 6 165 -38 61 -123 82 -190 46z m121 -70 c35 -36 37 -70 6 -107 -31 -35
-77 -37 -112 -4 -41 38 -31 99 20 128 32 18 55 14 86 -17z" />
        <path d="M1710 1211 c-98 -52 -97 -201 2 -252 44 -23 77 -24 121 -5 56 24 80
59 85 124 4 52 1 61 -23 90 -53 63 -120 78 -185 43z m128 -77 c28 -32 28 -66
-1 -100 -46 -53 -137 -20 -137 50 1 78 85 109 138 50z" />
        <path d="M320 1161 c0 -58 26 -71 145 -71 92 0 95 1 95 23 1 12 7 33 15 47 8
14 14 28 15 33 0 4 -61 7 -135 7 l-135 0 0 -39z" />
    </g>
</svg>
